<?xml version="1.0" encoding="UTF-8" standalone="no"?>
<svg
   xmlns:dc="http://purl.org/dc/elements/1.1/"
   xmlns:cc="http://creativecommons.org/ns#"
   xmlns:rdf="http://www.w3.org/1999/02/22-rdf-syntax-ns#"
   xmlns:svg="http://www.w3.org/2000/svg"
   xmlns="http://www.w3.org/2000/svg"
   xmlns:sodipodi="http://sodipodi.sourceforge.net/DTD/sodipodi-0.dtd"
   xmlns:inkscape="http://www.inkscape.org/namespaces/inkscape"
   viewBox="0 0 500 500"
   version="1.1"
   id="svg8858"
   sodipodi:docname="snorain.svg"
   inkscape:version="0.92.3 (2405546, 2018-03-11)">
  <metadata
     id="metadata8862">
    <rdf:RDF>
      <cc:Work
         rdf:about="">
        <dc:format>image/svg+xml</dc:format>
        <dc:type
           rdf:resource="http://purl.org/dc/dcmitype/StillImage" />
        <dc:title></dc:title>
      </cc:Work>
    </rdf:RDF>
  </metadata>
  <sodipodi:namedview
     pagecolor="#ffffff"
     bordercolor="#666666"
     borderopacity="1"
     objecttolerance="10"
     gridtolerance="10"
     guidetolerance="10"
     inkscape:pageopacity="0"
     inkscape:pageshadow="2"
     inkscape:window-width="640"
     inkscape:window-height="480"
     id="namedview8860"
     showgrid="false"
     inkscape:zoom="0.472"
     inkscape:cx="113.65546"
     inkscape:cy="265.20899"
     inkscape:window-x="0"
     inkscape:window-y="27"
     inkscape:window-maximized="0"
     inkscape:current-layer="图层_1" />
  <defs
     id="defs8825">
    <style
       id="style8823">.cls-1{fill:#fff;}.cls-2{fill:#231815;}.cls-3{fill:#2ea7e0;}</style>
  </defs>
  <g
     data-name="图层 1"
     id="图层_1">
    <path
       class="cls-1"
       d="M325.57,311.22a51.75,51.75,0,0,0,10.34-102.46,73.71,73.71,0,0,0-131.81-19,62.24,62.24,0,1,0-19.18,121.44"
       id="path8829" />
    <path
       class="cls-2"
       d="M325.57,318.72a59.9,59.9,0,0,0,58.79-52.34c3.7-30-17-58.47-46.46-64.86l5.24,5.24c-9.07-28.39-33.17-50.81-62.81-56A82.4,82.4,0,0,0,197.62,186l8.47-3.45c-31.4-9.69-66.35,3.77-82.26,32.77-15.16,27.65-9.62,63.37,13.66,84.79a70.91,70.91,0,0,0,47.42,18.61c9.66.11,9.66-14.89,0-15-24.5-.27-46.36-16.6-52.84-40.4a55.22,55.22,0,0,1,25.59-61.82c13.58-7.83,29.54-9.09,44.43-4.49,3.34,1,6.63-.74,8.47-3.45,14.64-21.54,41.42-33.14,67.15-28.1a67.05,67.05,0,0,1,50.95,45.29,7.54,7.54,0,0,0,5.24,5.24c22.53,4.89,38.5,25.75,35.61,49-2.74,22.09-22,38.41-44,38.7-9.64.13-9.67,15.13,0,15Z"
       id="path8831" />
    <line
       class="cls-3"
       x1="212.97"
       x2="205.6"
       y1="300.26"
       y2="281.06"
       id="line8833" />
    <path
       class="cls-3"
       d="M220.2,298.27l-7.37-19.2c-1.45-3.78-5-6.39-9.23-5.24-3.61,1-6.7,5.42-5.24,9.23l7.37,19.2c1.45,3.78,5,6.39,9.23,5.24,3.61-1,6.7-5.42,5.24-9.23Z"
       id="path8835" />
    <line
       class="cls-3"
       x1="229.44"
       x2="222.06"
       y1="343.14"
       y2="323.94"
       id="line8837" />
    <path
       class="cls-3"
       d="M236.67,341.15l-7.37-19.2c-1.45-3.78-5-6.39-9.23-5.24-3.61,1-6.7,5.42-5.24,9.23l7.37,19.2c1.45,3.78,5,6.39,9.23,5.24,3.61-1,6.7-5.42,5.24-9.23Z"
       id="path8839" />
    <line
       class="cls-3"
       x1="250.93"
       x2="243.56"
       y1="300.26"
       y2="281.06"
       id="line8841" />
    <line
       class="cls-3"
       x1="267.4"
       x2="260.02"
       y1="343.14"
       y2="323.94"
       id="line8845" />
    <line
       class="cls-3"
       x1="288.89"
       x2="281.52"
       y1="300.26"
       y2="281.06"
       id="line8849" />
    <line
       class="cls-3"
       x1="305.36"
       x2="297.99"
       y1="343.14"
       y2="323.94"
       id="line8853" />
    <path
       class="cls-3"
       d="m 318.83733,322.86205 -3.56417,-1.59616 2.41196,-1.08991 c 6.4063,-2.88857 0.61451,-10.61325 -5.81483,-7.74255 l -6.49079,2.9243 c -0.50696,0.22632 -1.07539,0.4586 -1.67454,0.70279 l -2.30442,-1.03036 v -8.58232 l 2.30442,-1.03631 c 0.58378,0.23823 1.15989,0.47051 1.67454,0.70278 l 6.49079,2.92431 c 6.42166,2.89452 12.2288,-4.8242 5.81483,-7.74256 l -2.41196,-1.08991 2.30442,-1.0244 1.43643,-0.64322 c 5.18494,-2.32277 2.39659,-7.80807 -2.26603,-8.33814 a 5.0159582,3.8891434 0 0 0 -1.19829,0 5.8839572,4.5621498 0 0 0 -2.3582,0.59558 l -3.66403,1.64381 q 0,-1.07205 0,-2.1441 c 0,-0.13698 0,-0.27397 0,-0.40499 -0.48392,-4.70508 -9.05638,-5.16369 -11.0689,-1.35792 a 5.8916386,4.5681056 0 0 0 -0.43016,1.78674 v 5.81882 c 0,0.44073 0,0.93507 -0.0538,1.44131 v 0.0595 l -2.94965,1.32219 -4.7548,-2.12622 c -0.76814,-0.3633 -1.72064,-0.83977 -2.69618,-1.3341 -0.4916,-0.25014 -1.00625,-0.50625 -1.53627,-0.75043 v -2.44188 c 0.58378,-0.28589 1.15221,-0.56581 1.67454,-0.79808 l 6.50616,-2.89453 a 6.2987531,4.8837635 0 0 0 1.1138,-0.62536 c 4.53971,-3.21017 -0.90641,-9.76752 -6.91327,-7.0874 l -2.37355,1.05417 v -3.11488 c 0,-5.74736 -11.52212,-5.75928 -11.52212,0 v 3.16848 l -2.38123,-1.078 c -5.54598,-2.4657 -10.62338,2.9124 -7.81199,6.28338 a 5.7072848,4.4251661 0 0 0 1.99716,1.43534 l 6.50615,2.89453 c 0.52234,0.23228 1.09077,0.51221 1.67455,0.79809 v 2.53121 c -1.3596,0.65514 -2.65008,1.35792 -3.74083,1.8463 l -5.15423,2.31086 -3.02647,-1.35793 c 0,-0.52412 -0.0538,-1.03036 -0.0538,-1.50087 v -5.81882 c 0,-5.74736 -11.5221,-5.75926 -11.5221,0 q 0,1.07204 0,2.1441 l -3.66404,-1.64381 c -6.43702,-2.87666 -12.24415,4.83612 -5.81483,7.74255 l 3.71782,1.66763 -2.41197,1.08991 c -6.40629,2.88856 -0.61451,10.61326 5.81482,7.74255 l 6.49079,-2.9243 c 0.50698,-0.22632 1.0754,-0.45859 1.67454,-0.70278 l 2.45806,1.10182 v 8.47511 l -2.45806,1.10183 c -0.58378,-0.23823 -1.15988,-0.47051 -1.67454,-0.70278 l -6.49079,-2.92431 c -6.42165,-2.89452 -12.22879,4.82421 -5.81482,7.74255 l 2.41197,1.08992 -3.56418,1.59615 c -6.42166,2.87666 -0.62219,10.59539 5.81482,7.74256 l 3.51809,-1.57233 q 0,1.07204 0,2.14408 c 0,5.74736 11.52211,5.75927 11.52211,0 v -5.81882 c 0,-0.4586 0,-0.9708 0.0538,-1.50087 l 1.81282,-0.80999 6.04527,2.70395 c 1.17525,0.5241 2.58095,1.30431 4.07114,2.01306 v 1.42344 c -0.58378,0.28588 -1.15221,0.5658 -1.67455,0.79807 l -6.50615,2.89453 c -6.42933,2.85878 -0.62988,10.58346 5.81483,7.74254 l 2.37355,-1.05418 v 3.30548 c 0,5.74735 11.52212,5.75926 11.52212,0 v -3.30548 l 2.37355,1.05418 c 6.44469,2.86475 12.29025,-4.84803 5.81482,-7.74254 l -6.50614,-2.89453 c -0.52235,-0.23227 -1.09077,-0.51219 -1.67456,-0.79807 v -1.37579 c 1.42106,-0.67897 2.76531,-1.41749 3.89448,-1.92373 l 6.29107,-2.8171 1.74368,0.78021 c 0,0.52411 0.0538,1.03036 0.0538,1.50086 v 5.81883 c 0,5.74734 11.52211,5.75926 11.52211,0 q 0,-1.07204 0,-2.1441 l 3.51807,1.57234 c 6.3679,2.76945 12.17503,-4.94928 5.75339,-7.82594 z m -38.49921,-3.02556 -0.0768,-0.0357 -4.34768,-1.94755 -1.41338,-0.63131 -3.70244,-1.65572 v -8.54063 l 0.56843,-0.2561 3.13401,-1.40557 2.62704,-1.19116 3.13402,-1.40557 0.0768,-0.0358 3.13402,1.40557 2.55022,1.14352 3.21083,1.43535 0.64523,0.28588 v 8.54063 l -3.84069,1.72718 -1.33657,0.59558 z"
       id="path5859"
       inkscape:connector-curvature="0"
       style="fill:#2ea7e0;stroke-width:0.67638004" />
  </g>
</svg>
